HIERARCHY
ROOT Hips
{
	OFFSET -0.001795 -0.223333 0.028219
	CHANNELS 6 Xposition Yposition Zposition Zrotation Yrotation Xrotation 
	JOINT LeftUpLeg
	{
		OFFSET 0.069520 -0.091406 -0.006815
		CHANNELS 3 Zrotation Yrotation Xrotation
		JOINT LeftLeg
		{
			OFFSET 0.034277 -0.375199 -0.004496
			CHANNELS 3 Zrotation Yrotation Xrotation
			JOINT LeftFoot
			{
				OFFSET -0.013596 -0.397961 -0.043693
				CHANNELS 3 Zrotation Yrotation Xrotation
				JOINT LeftToe
				{
					OFFSET 0.026358 -0.055791 0.119288
					CHANNELS 3 Zrotation Yrotation Xrotation
					End Site
					{
						OFFSET 0.000000 0.000000 0.000000
					}
				}
			}
		}
	}
	JOINT RightUpLeg
	{
		OFFSET -0.067670 -0.090522 -0.004320
		CHANNELS 3 Zrotation Yrotation Xrotation
		JOINT RightLeg
		{
			OFFSET -0.038290 -0.382569 -0.008850
			CHANNELS 3 Zrotation Yrotation Xrotation
			JOINT RightFoot
			{
				OFFSET 0.015774 -0.398415 -0.042312
				CHANNELS 3 Zrotation Yrotation Xrotation
				JOINT RightToe
				{
					OFFSET -0.025372 -0.048144 0.123348
					CHANNELS 3 Zrotation Yrotation Xrotation
					End Site
					{
						OFFSET 0.000000 0.000000 0.000000
					}
				}
			}
		}
	}
	JOINT Spine
	{
		OFFSET -0.002533 0.108963 -0.026696
		CHANNELS 3 Zrotation Yrotation Xrotation
		JOINT Spine1
		{
			OFFSET 0.005487 0.135180 0.001092
			CHANNELS 3 Zrotation Yrotation Xrotation
			JOINT Spine2
			{
				OFFSET 0.001457 0.052922 0.025425
				CHANNELS 3 Zrotation Yrotation Xrotation
				JOINT Neck
				{
					OFFSET -0.002778 0.213870 -0.042857
					CHANNELS 3 Zrotation Yrotation Xrotation
					JOINT Head
					{
						OFFSET 0.005152 0.064970 0.051349
						CHANNELS 3 Zrotation Yrotation Xrotation
						End Site
						{
							OFFSET 0.000000 0.000000 0.000000
						}
					}
				}
				JOINT LeftShoulder
				{
					OFFSET 0.078845 0.121749 -0.034090
					CHANNELS 3 Zrotation Yrotation Xrotation
					JOINT LeftArm
					{
						OFFSET 0.090977 0.030469 -0.008868
						CHANNELS 3 Zrotation Yrotation Xrotation
						JOINT LeftForeArm
						{
							OFFSET 0.259612 -0.012772 -0.027456
							CHANNELS 3 Zrotation Yrotation Xrotation
							JOINT LeftHand
							{
								OFFSET 0.249234 0.008986 -0.001171
								CHANNELS 3 Zrotation Yrotation Xrotation
								End Site
								{
									OFFSET 0.000000 0.000000 0.000000
								}
							}
						}
					}
				}
				JOINT RightShoulder
				{
					OFFSET -0.081759 0.118833 -0.038615
					CHANNELS 3 Zrotation Yrotation Xrotation
					JOINT RightArm
					{
						OFFSET -0.096012 0.032551 -0.009143
						CHANNELS 3 Zrotation Yrotation Xrotation
						JOINT RightForeArm
						{
							OFFSET -0.253742 -0.013329 -0.021401
							CHANNELS 3 Zrotation Yrotation Xrotation
							JOINT RightHand
							{
								OFFSET -0.255298 0.007772 -0.005559
								CHANNELS 3 Zrotation Yrotation Xrotation
								End Site
								{
									OFFSET 0.000000 0.000000 0.000000
								}
							}
						}
					}
				}
			}
		}
	}
}
MOTION
Frames: 16
Frame Time: 0.050000
0.000000 0.819751 0.000000 -0.442136 -2.038645 -0.121934 35.346546 -1.310450 5.834820 -36.029012 5.526664 3.981167 11.163294 22.799598 -1.832489 0.000000 0.000000 0.000000 -32.464831 0.463365 -3.301426 20.810649 -3.130649 7.368795 -2.413308 -9.470187 10.902841 0.000000 0.000000 0.000000 -1.000473 -0.120844 4.053344 3.771952 -0.571187 -20.394349 -1.592846 0.960934 24.072669 0.154842 1.700954 -29.974874 0.000000 0.000000 0.000000 -30.551714 -5.170033 1.469022 -42.002639 -4.510839 -5.290141 -20.298910 -21.303342 4.762596 0.000000 0.000000 0.000000 23.680910 12.496951 5.869545 50.405772 7.263916 -3.954838 16.810880 24.757182 4.401278 0.000000 0.000000 0.000000 
-0.000607 0.818228 0.001614 0.569973 -2.569718 -0.804151 32.880171 -1.179934 6.572402 -33.813707 5.434148 4.685293 11.429423 23.541657 -3.880708 0.000000 0.000000 0.000000 -31.952292 1.027109 -0.476146 18.061036 -2.151847 3.280040 -3.017647 -9.599244 6.540210 0.000000 0.000000 0.000000 -2.632346 -0.013191 1.750990 2.326587 -0.236816 -19.258420 -0.215259 -0.013021 28.020410 -0.955000 2.189999 -34.003874 0.000000 0.000000 0.000000 -26.430850 -5.272295 2.412076 -46.988206 -8.492060 -4.899634 -18.490186 -18.948854 4.018347 0.000000 0.000000 0.000000 20.787252 12.984367 5.649900 54.425960 10.784181 -2.890872 12.832955 25.872455 3.794906 0.000000 0.000000 0.000000 
-0.001150 0.816237 0.002798 0.218045 -0.141976 -2.109008 34.277852 -1.228524 4.705358 -34.065921 6.218847 8.827024 10.596031 21.573609 -4.445423 0.000000 0.000000 0.000000 -31.868105 0.877300 1.448542 18.758699 -2.572392 4.645610 -3.517105 -10.433887 6.018149 0.000000 0.000000 0.000000 -1.938659 -0.057962 2.538117 3.071054 -0.408958 -19.120992 -0.896895 -0.748775 28.649654 -0.775942 2.143081 -32.497715 0.000000 0.000000 0.000000 -26.523007 -5.859283 2.521567 -47.552644 -9.780503 -4.463598 -17.474246 -19.426784 3.936847 0.000000 0.000000 0.000000 20.256588 12.832396 5.817742 53.342318 10.846455 -2.990183 12.729003 24.392893 3.548908 0.000000 0.000000 0.000000 
-0.001486 0.817010 0.003183 -0.247423 1.045004 -2.147456 36.906863 -1.648877 4.843534 -37.212003 6.220652 7.461564 9.809345 19.888834 -1.694042 0.000000 0.000000 0.000000 -33.722827 0.830438 2.008770 23.081455 -3.305406 4.585029 -2.886646 -10.219106 10.983355 0.000000 0.000000 0.000000 -2.360671 -0.055854 2.826357 3.857460 -0.564379 -19.910835 -1.140002 -1.883487 30.145693 -1.824735 2.663182 -34.585136 0.000000 0.000000 0.000000 -26.279653 -5.025251 2.212132 -47.064871 -10.752355 -4.272489 -18.040755 -17.726075 3.687418 0.000000 0.000000 0.000000 18.208661 14.059070 6.290029 53.586150 13.067559 -2.151238 12.511974 23.454631 3.338715 0.000000 0.000000 0.000000 
-0.001573 0.814223 0.003100 -0.632419 0.945903 -3.102846 36.883543 -1.539740 4.725681 -36.098701 6.647943 9.655446 9.896303 20.003002 -3.597523 0.000000 0.000000 0.000000 -33.302912 0.817971 2.295850 22.858956 -3.468476 5.844404 -2.905080 -9.916199 9.346442 0.000000 0.000000 0.000000 -2.212454 -0.079567 3.420330 3.600062 -0.521119 -19.506293 -1.155639 -1.545596 31.036764 -0.962384 2.325623 -35.686321 0.000000 0.000000 0.000000 -24.390908 -5.311193 2.328079 -48.752082 -11.896653 -3.941261 -17.726000 -17.832467 3.668615 0.000000 0.000000 0.000000 17.279346 13.225883 5.881395 55.489879 14.685199 -1.507267 10.966261 22.644895 2.953721 0.000000 0.000000 0.000000 
-0.001628 0.811745 0.002830 -0.576131 0.832378 -2.704395 37.172257 -1.296750 3.620602 -36.526918 7.143003 10.920078 9.984099 20.200417 -3.885056 0.000000 0.000000 0.000000 -33.813658 0.687260 1.296627 23.536596 -3.736556 6.802886 -2.994483 -9.953396 8.752807 0.000000 0.000000 0.000000 -2.193759 -0.066607 2.942780 3.246792 -0.455582 -18.844169 -0.974973 -1.442170 31.339455 -0.759394 2.274311 -36.757748 0.000000 0.000000 0.000000 -24.164282 -5.061307 2.178032 -49.074891 -12.516356 -3.729517 -17.778739 -17.492187 3.608388 0.000000 0.000000 0.000000 17.115934 12.572054 5.558093 56.065457 15.247311 -1.270242 10.386827 22.998570 2.915273 0.000000 0.000000 0.000000 
-0.001668 0.811115 0.002600 -0.694964 1.065273 -2.380434 36.956109 -1.227145 3.061617 -35.980011 7.065578 11.156592 10.118360 20.466831 -4.656910 0.000000 0.000000 0.000000 -33.513897 0.523671 0.589517 23.238365 -3.863075 7.701596 -3.207468 -10.247561 8.258855 0.000000 0.000000 0.000000 -2.319065 -0.066982 3.216087 3.661186 -0.579688 -18.687832 -1.071420 -1.546924 31.087153 -0.655943 2.245282 -37.072411 0.000000 0.000000 0.000000 -24.296550 -4.474272 1.785767 -49.520508 -12.244810 -3.816889 -18.289293 -17.883875 3.787141 0.000000 0.000000 0.000000 16.815126 12.279220 5.396857 56.038798 14.545303 -1.582725 10.676971 23.470971 3.042728 0.000000 0.000000 0.000000 
-0.001779 0.811206 0.002587 -0.866073 1.122596 -2.455690 36.756046 -1.280285 3.286614 -35.389039 6.856320 10.913773 10.195075 20.614649 -5.263499 0.000000 0.000000 0.000000 -32.769380 0.417339 0.177587 22.237236 -3.850553 8.711063 -3.371009 -10.394377 7.449597 0.000000 0.000000 0.000000 -2.165407 -0.090550 4.045828 3.781096 -0.586353 -19.161702 -1.183354 -1.749244 31.301336 -1.011841 2.388170 -37.196914 0.000000 0.000000 0.000000 -23.966237 -3.895776 1.498316 -49.802061 -12.178640 -3.882680 -18.240990 -17.886443 3.791037 0.000000 0.000000 0.000000 15.834702 11.762046 5.041968 56.096499 13.887432 -1.916890 11.929750 23.169025 3.233037 0.000000 0.000000 0.000000 
-0.001899 0.810545 0.002633 -1.133996 1.510486 -2.552514 36.644468 -1.302873 3.073355 -34.624514 6.720128 11.249394 10.239468 20.666099 -6.252604 0.000000 0.000000 0.000000 -32.395396 0.301596 -0.020864 22.075370 -4.004694 9.629920 -3.496144 -10.582200 7.221145 0.000000 0.000000 0.000000 -1.782189 -0.111821 4.294955 3.704716 -0.554547 -19.196775 -1.467143 -1.866117 31.602575 -0.421855 2.117633 -36.904076 0.000000 0.000000 0.000000 -23.019287 -3.906094 1.482477 -50.047424 -12.062394 -3.942520 -18.567447 -18.159852 3.910590 0.000000 0.000000 0.000000 15.614083 11.144984 4.767299 56.264747 13.651171 -2.066233 11.902410 22.670176 3.160168 0.000000 0.000000 0.000000 
-0.001944 0.810524 0.002699 -1.336907 1.479571 -2.354910 36.837484 -1.223005 2.646770 -34.542408 6.822503 11.648233 10.291576 20.791115 -6.258567 0.000000 0.000000 0.000000 -32.158981 0.272719 -0.260754 22.085992 -4.014229 9.670203 -3.520176 -10.640687 7.279595 0.000000 0.000000 0.000000 -1.349639 -0.121890 4.126707 3.564850 -0.506537 -19.315628 -1.656130 -1.981876 31.988872 -0.206704 1.991572 -36.916118 0.000000 0.000000 0.000000 -23.119575 -3.547168 1.321262 -49.185439 -11.960311 -4.000470 -19.408700 -18.683983 4.181975 0.000000 0.000000 0.000000 15.680464 10.612064 4.486710 55.509147 13.019288 -2.414286 13.178306 22.522889 3.371711 0.000000 0.000000 0.000000 
-0.001983 0.810476 0.002750 -1.480238 1.292749 -2.076757 36.429413 -1.086574 2.210803 -33.663214 6.802595 12.142483 10.503679 21.283726 -6.925646 0.000000 0.000000 0.000000 -31.569536 0.290782 -0.410638 21.405782 -3.807009 9.303893 -3.698537 -10.826907 6.388156 0.000000 0.000000 0.000000 -1.078847 -0.119370 3.782308 3.480666 -0.491159 -19.182363 -1.609032 -1.862370 32.263043 -0.077959 1.933646 -36.996499 0.000000 0.000000 0.000000 -22.738757 -3.354457 1.227702 -49.326053 -12.261568 -3.911780 -19.972995 -19.238147 4.431631 0.000000 0.000000 0.000000 15.323287 10.129230 4.242598 55.466593 12.822463 -2.539483 13.613798 22.736479 3.501051 0.000000 0.000000 0.000000 
-0.002020 0.809843 0.002874 -1.627583 1.264354 -2.018359 36.354496 -1.052058 2.069503 -33.268709 6.783089 12.379756 10.590836 21.488251 -7.490269 0.000000 0.000000 0.000000 -31.257006 0.325120 -0.240638 21.183173 -3.700763 8.901275 -3.826992 -10.947589 5.663033 0.000000 0.000000 0.000000 -0.735048 -0.120589 3.486786 3.254287 -0.446212 -18.801612 -1.639185 -1.867202 32.451534 0.166178 1.786380 -36.523293 0.000000 0.000000 0.000000 -22.434138 -3.378571 1.259996 -49.387057 -12.593693 -3.800969 -20.056096 -20.066534 4.656432 0.000000 0.000000 0.000000 15.389802 9.657654 4.013831 55.115325 12.482167 -2.722496 14.214871 22.970457 3.662286 0.000000 0.000000 0.000000 
-0.001988 0.808680 0.003090 -1.700276 1.376593 -2.143153 36.430271 -1.073885 2.085664 -33.200666 6.796426 12.567354 10.583326 21.460311 -8.026547 0.000000 0.000000 0.000000 -31.264710 0.399312 0.346938 21.361619 -3.637368 8.204093 -3.933496 -11.035629 4.986245 0.000000 0.000000 0.000000 -0.363340 -0.136339 3.584546 2.999232 -0.370223 -18.772696 -1.674571 -1.752394 32.450882 0.504657 1.650693 -36.433855 0.000000 0.000000 0.000000 -22.023715 -3.607381 1.341052 -49.478993 -12.571217 -3.796329 -20.226983 -20.592024 4.813292 0.000000 0.000000 0.000000 15.724087 9.217734 3.849244 54.834504 12.310220 -2.808376 14.051528 22.451278 3.540517 0.000000 0.000000 0.000000 
-0.001895 0.807493 0.003296 -1.584817 1.531668 -2.320321 36.407923 -1.087600 2.074492 -33.284218 6.864332 12.860026 10.532378 21.325760 -8.391752 0.000000 0.000000 0.000000 -31.495720 0.467170 0.933082 21.538262 -3.596829 7.648680 -4.034121 -11.116552 4.310704 0.000000 0.000000 0.000000 0.075597 -0.168824 4.022399 2.613121 -0.239213 -19.050002 -1.745027 -1.749629 32.239684 0.399165 1.721806 -36.480816 0.000000 0.000000 0.000000 -21.854369 -3.831452 1.434331 -49.180317 -12.398421 -3.830617 -20.789773 -21.286920 5.092764 0.000000 0.000000 0.000000 16.002729 8.712937 3.622310 54.762908 11.976272 -2.949265 14.079723 22.263986 3.516442 0.000000 0.000000 0.000000 
-0.001857 0.807374 0.003509 -1.593039 1.735394 -2.320264 36.393090 -1.097049 1.942393 -33.201096 6.841582 12.965464 10.504471 21.241204 -8.514635 0.000000 0.000000 0.000000 -31.473173 0.498157 1.303061 21.569488 -3.545936 7.171966 -4.110253 -11.259629 4.200415 0.000000 0.000000 0.000000 0.326482 -0.187249 4.233856 2.465393 -0.177874 -19.316947 -1.757867 -1.758432 32.128922 0.437232 1.716681 -36.376672 0.000000 0.000000 0.000000 -21.979246 -3.980752 1.476184 -48.474214 -12.268196 -3.843070 -21.762550 -21.943374 5.450424 0.000000 0.000000 0.000000 16.350335 8.454206 3.529360 54.374753 11.627733 -3.103832 14.360190 22.216798 3.562777 0.000000 0.000000 0.000000 
-0.001784 0.807892 0.003665 -1.580959 2.026392 -2.425095 35.903721 -1.071041 1.706909 -32.337781 6.721988 13.438792 10.521269 21.237458 -8.966121 0.000000 0.000000 0.000000 -31.032668 0.508615 1.722683 20.835229 -3.396469 6.898956 -4.280074 -11.537230 3.712727 0.000000 0.000000 0.000000 0.503010 -0.183904 4.024423 2.402463 -0.155126 -19.262815 -1.760423 -1.807043 32.197993 0.588747 1.654177 -36.227442 0.000000 0.000000 0.000000 -22.032718 -4.465171 1.719900 -47.879258 -12.420683 -3.767762 -22.383037 -22.458531 5.707650 0.000000 0.000000 0.000000 16.959002 8.497901 3.608564 53.827883 11.709000 -3.080938 14.151359 22.196579 3.522281 0.000000 0.000000 0.000000 
